# xmcd
#
# Track frame offsets: 
#        150
#        14175
#        30126
#        44864
#        60746
#        78644
#        95847
#        111103
#        127688
#        142476
#
# Disc length: 2253 seconds
#
# Revision: 0
# Processed by: cddbd v1.5.2PL0 Copyright (c) Steve Scherf et al.
# Submitted via: ExactAudioCopy v0.99pb3
#
DISCID=9108cb0a
DTITLE=Built For Comfort - Not Too Fast, Not Too Slow
DYEAR=2002
DGENRE=r&b
TTITLE0=Shake It Up And Go
TTITLE1=Messin' With The Kid
TTITLE2=Route 66
TTITLE3=My Babe
TTITLE4=Walking
TTITLE5=Cross-Eyed Cat
TTITLE6=Built For Comfort
TTITLE7=Son Of Juke
TTITLE8=Blow Wind Blow
TTITLE9=I Can't Quit You Baby
EXTD=
EXTT0=
EXTT1=
EXTT2=
EXTT3=
EXTT4=
EXTT5=
EXTT6=
EXTT7=
EXTT8=
EXTT9=
PLAYORDER=
